<svg id="svg2" xmlns:rdf="http://www.w3.org/1999/02/22-rdf-syntax-ns#" xmlns="http://www.w3.org/2000/svg" viewBox="0 0 1024 1024" version="1.1" xmlns:cc="http://creativecommons.org/ns#" xmlns:xlink="http://www.w3.org/1999/xlink" xmlns:dc="http://purl.org/dc/elements/1.1/">
	<defs>
		<radialGradient id="radialGradient4671" gradientUnits="userSpaceOnUse" cy="540.36" cx="512" gradientTransform="translate(.000044258 -28.36)" r="512">
			<stop id="stop4695" style="stop-color:#ffffff;stop-opacity:0" offset="0"/>
			<stop id="stop4703" style="stop-color:#080808;stop-opacity:.52549" offset=".90674"/>
			<stop id="stop4697" style="stop-opacity:.74902;stop-color:#000000" offset=".9375"/>
			<stop id="stop4701" style="stop-color:#000000;stop-opacity:.094118" offset=".96875"/>
			<stop id="stop4699" style="stop-color:#000000" offset="1"/>
		</radialGradient>
		<radialGradient r="512" gradientTransform="translate(.000044258 -28.36)" cx="512" cy="540.36" gradientUnits="userSpaceOnUse" id="gradient2">
			<stop offset="0" style="stop-color:#000000;stop-opacity:0" id="stop4695"/>
			<stop id="stop8065" style="stop-color:#000000;stop-opacity:0" offset="0.90625006"/>
			<stop offset="1" style="stop-color:#000000;stop-opacity:0.3764706" id="stop4699"/>
		</radialGradient>
		<pattern id="honeyPattern" width="120" patternUnits="userSpaceOnUse" patternTransform="translate(2184 40.131)" height="207.5367">
			<path id="path3759-4-40-1-47-2" style="color-rendering:auto;text-decoration-color:#000000;color:#000000;isolation:auto;mix-blend-mode:normal;shape-rendering:auto;solid-color:#000000;block-progression:tb;text-decoration-line:none;image-rendering:auto;white-space:normal;text-indent:0;text-transform:none;text-decoration-style:solid;fill:#000000" d="m52.552 0c-17.517 10.099-35.035 20.197-52.552 30.296v77.766l56.28 32.445v67.029h7.4398v-67.029c18.76-10.81 37.52-21.62 56.28-32.44v-77.766c-17.52-10.096-35.035-20.195-52.553-30.294h-14.895zm7.448 4.2942l56.28 32.445v64.881c-18.76 10.81-37.52 21.63-56.28 32.44-18.76-10.81-37.52-21.63-56.28-32.44v-64.881l56.28-32.445z"/>
		</pattern>
	</defs>

	<g id="feature-alarm,sensor">
		<circle id="circle-background" cy="512" cx="512" r="511.1"/>
		<use id="circle-background-debug" xlink:href="#circle-background" style="fill:#00ff00"/>
		<circle id="circle-honey-pattern" cx="512" style="opacity:0.263;fill:url(#honeyPattern)" r="512" cy="512"/>
		<path id="cross" style="stroke-opacity:0;fill:#ffffff" d="m837.72 118.4-325.72 325.72-325.57-325.57a511.1 511.1 0 0 0 -68.03 67.73l325.72 325.72-325.57 325.57a511.1 511.1 0 0 0 67.73 68.033l325.72-325.72 325.57 325.57a511.1 511.1 0 0 0 68.033 -67.73l-325.72-325.72 325.57-325.56a511.1 511.1 0 0 0 -67.73 -68.035z"/>
		<circle id="circle-gradient" cy="512" cx="512" r="512" style="fill:url(#gradient2)"/>
		<path id="exclamation" d="m576.69 757.97a64.685 66.028 0 0 1 -64.69 66.03 64.685 66.028 0 0 1 -64.68 -66.03 64.685 66.028 0 0 1 64.68 -66.03 64.685 66.028 0 0 1 64.69 66.03zm-129.64-502.39c0-74.296 129.9-73.922 129.9 0l-34.073 390.58c0 30.779-60.694 30.866-60.694 0l-35.14-390.58z"/>
		<path id="bell" d="m448.72 760.97c0 29.009 23.722 63.029 52.731 63.029h21.098c29.009 0 52.731-34.02 52.731-63.029h-126.56zm58.311-520.78h4.9659 4.9729l5.8327-.023c13.745 0 27.96.91861 41.926 3.8739v-12.407c0-17.387-14.232-31.633-31.644-31.633h-42.168c-17.418 0-31.65 14.246-31.65 31.633v12.407c13.962-2.9553 28.18-3.8739 41.926-3.8739l5.8395.023zm252.74 489.15c8.7445 0 15.901-7.1499 15.901-15.891v-25.405c0-8.7498-5.4738-20.536-12.109-26.189 0 0-103.81-88.185-111.61-228.77-9.3409-168.14-95.305-161.23-139.95-161.23-44.647 0-130.6-6.909-139.95 161.23-7.8137 140.59-111.61 228.77-111.61 228.77-6.6489 5.6541-12.109 17.441-12.109 26.189v25.405c0 8.7412 7.15 15.891 15.902 15.891h495.54z"/>
		<path
		   d="m 244.34898,206.50582 c -10.516,0 -20.06748,4.37431 -26.76174,11.46909 -1.36791,1.44915 -2.70731,2.93421 -3.8259,4.58852 -72.82849,74.9462 -117.761342,177.14208 -117.761342,289.8184 0,114.22384 46.211732,217.67387 120.821882,292.87803 0.38171,0.38761 0.37815,1.13377 0.77684,1.52928 l 0.77296,-0.77153 c 6.52778,5.97053 14.93492,9.94294 24.46984,9.94294 20.26185,0 36.70643,-16.44314 36.70643,-36.70588 0,-9.572 -3.93119,-17.93092 -9.94204,-24.4681 -0.88279,-0.88988 -1.41339,-2.15601 -2.29311,-3.05808 -60.43495,-61.78801 -97.88177,-146.15961 -97.88177,-239.3503 0,-94.55167 38.1667,-180.39992 100.17488,-242.4084 7.09596,-6.69213 11.47164,-16.24474 11.47164,-26.76308 0,-20.26015 -16.44536,-36.70487 -36.70636,-36.70487 z m 535.2865,0 c -20.26187,0 -36.70563,16.44576 -36.70563,36.70427 0,10.48483 4.41329,20.0738 11.47168,26.76401 62.00694,62.00747 100.17354,147.8553 100.17354,242.40773 0,94.55339 -38.1666,180.40029 -100.17354,242.4065 l 0.77157,0 0,0.77238 c -6.40447,6.61005 -10.70832,15.31285 -10.70832,25.23501 0,20.26043 16.44665,36.70318 36.70704,36.70318 9.89164,0 18.6324,-4.3344 25.23587,-10.705 1.61334,-1.55568 3.28174,-3.52241 4.58878,-5.35264 0.18823,-0.2749 0.57753,-0.49626 0.77279,-0.77256 C 883.70987,725.85998 928,624.28077 928,512.37689 928,399.7018 883.06769,297.50478 810.23876,222.5589 c -1.11391,-1.65383 -2.46271,-3.13936 -3.82613,-4.5872 -6.69423,-7.0959 -16.24576,-11.4706 -26.76168,-11.4706 z M 347.58411,311.26766 c -10.13287,0 -19.35627,4.0626 -25.99967,10.70625 -1.66,1.66013 -3.2737,3.3972 -4.58977,5.35138 -45.83207,48.27992 -74.1731,113.28248 -74.1731,185.05654 0,70.99837 27.68548,135.40582 72.64561,183.52772 0.97053,1.048 2.06476,2.02681 3.05867,3.05847 1.09402,1.27436 1.80427,2.71617 3.05859,3.82188 6.4735,5.71725 15.16146,9.17801 24.47231,9.17801 20.26006,0 36.70401,-16.44444 36.70401,-36.7067 0,-9.35609 -3.40786,-17.98506 -9.17781,-24.46947 -0.50761,-0.50445 -1.02601,-1.01936 -1.52899,-1.52818 -34.54481,-35.30632 -55.8235,-83.62303 -55.8235,-136.88173 0,-54.02962 21.92193,-102.97867 57.35249,-138.40945 6.64391,-6.64333 10.7052,-15.86884 10.7052,-25.99878 0,-20.26234 -16.44276,-36.70595 -36.70404,-36.70595 z m 329.58334,0.77351 c -20.2609,0 -36.70666,16.44297 -36.70666,36.70861 0,9.73902 3.74022,18.6564 9.94168,25.23034 0.2465,0.25921 0.5149,0.51212 0.77149,0.76926 34.98733,35.37131 56.58915,84.00145 56.58915,137.64588 0,53.64421 -21.60182,102.27353 -56.58915,137.64394 -0.24991,0.25533 -0.51926,0.51614 -0.77149,0.77837 -6.20146,6.57347 -9.94168,15.49143 -9.94168,25.23424 0,20.26039 16.44577,36.70592 36.70666,36.70592 9.9223,0 17.86134,-4.30199 24.46845,-10.70654 l 0.77232,0 c 48.48673,-48.68855 78.76295,-115.55356 78.76295,-189.64285 0,-71.38906 -28.01387,-136.08993 -73.40808,-184.29175 -1.11398,-1.65273 -2.46078,-3.14126 -3.82499,-4.58803 -0.24563,-0.25242 -0.51606,-0.51332 -0.77233,-0.77497 -0.24955,-0.25363 -0.5062,-0.51994 -0.77316,-0.76947 -6.57357,-6.20105 -15.49301,-9.94031 -25.23663,-9.94031 z M 511.99434,414.50841 a 97.880747,97.880747 0 0 0 -97.88191,97.88189 97.880747,97.880747 0 0 0 97.88191,97.88046 97.880747,97.880747 0 0 0 97.87984,-97.88046 97.880747,97.880747 0 0 0 -97.87984,-97.88189 z" style="stroke:none" id="sensor" />
	</g>

	<g id="feature-alarm,sensor-error">
		<use xlink:href="#circle-background" style="fill:#ff0000"/>
		<use xlink:href="#circle-honey-pattern" />
		<use xlink:href="#cross" />
		<use xlink:href="#circle-gradient" />
	</g>

	<g id="feature-alarm-on">
		<use xlink:href="#circle-background" style="fill:#fffc00"/>
		<use xlink:href="#circle-honey-pattern" />
		<use xlink:href="#bell" style="fill:#ff0000"/>
		<use xlink:href="#circle-gradient" />
	</g>

	<g id="feature-sensor-on">
		<use xlink:href="#circle-background" style="fill:#fffc00"/>
		<use xlink:href="#circle-honey-pattern" />
		<use xlink:href="#circle-gradient" />
		<use xlink:href="#exclamation" style="fill:#ff0000"/>
	</g>

	<g id="feature-alarm-off">
		<use xlink:href="#circle-background" style="fill:#00ff00"/>
		<use xlink:href="#circle-honey-pattern" />
		<use xlink:href="#bell" style="fill:#00c400"/>
		<use xlink:href="#circle-gradient" />
	</g>

	<g id="feature-sensor-off">
		<use xlink:href="#circle-background" style="fill:#00ff00"/>
		<use xlink:href="#circle-honey-pattern" />
		<use xlink:href="#sensor" style="fill:#00c400"/>
		<use xlink:href="#circle-gradient" />
	</g>
</svg>
