<svg xmlns="http://www.w3.org/2000/svg" xmlns:xlink="http://www.w3.org/1999/xlink" viewBox="0 0 18 26"><defs><style>.\32 0895fc5-1542-4705-af95-c52b0fa6c843{fill:url(#6e5d5876-9a60-4de3-8cef-6445b965f27e);}.\37 9ec7f2a-351f-4709-bfc6-2dbb4bb9464b{fill:#fff;}</style><linearGradient id="6e5d5876-9a60-4de3-8cef-6445b965f27e" x1="1" y1="13" x2="17" y2="13" gradientUnits="userSpaceOnUse"><stop offset="0" stop-color="#603"/><stop offset="0.4" stop-color="#92001b"/><stop offset="0.793" stop-color="#b70008"/><stop offset="1" stop-color="#c50000"/></linearGradient></defs><title>camera-error_1</title><g id="f6bd92b0-1847-4979-8196-c44ed3cb9f0e" data-name="Layer 2"><g id="ab1ad7b1-9e8e-4dd4-916e-4f06a2ea58e3" data-name="Layer 1"><path class="20895fc5-1542-4705-af95-c52b0fa6c843" d="M3.818,25C2.342,25,1,24.227,1,22.813V9.372A2.582,2.582,0,0,1,3.818,7H4V2.359A1.2,1.2,0,0,1,5.242,1h7.5A1.193,1.193,0,0,1,14,2.359V5.278c0,.606,0,1.136-1,1.421V7h1.163A2.606,2.606,0,0,1,17,9.372V22.813C17,24.248,15.651,25,14.163,25Z"/><path class="79ec7f2a-351f-4709-bfc6-2dbb4bb9464b" d="M13.05,1.992c.26,0,.95.108.95.368V5.278C14,5.537,13,6,12.739,6H12V8h2.163C15.068,8,16,8.467,16,9.372V22.813C16,23.718,15.068,24,14.163,24H3.818C2.913,24,2,23.718,2,22.813V9.372C2,8.467,2.913,8,3.818,8H6V6H5.242C4.983,6,4,5.537,4,5.278V2.359C4,2.1,4.983,2,5.242,2H13m-.261-2h-7.5C4.073,0,2,.759,2,2.359V5.278a2.2,2.2,0,0,0,.194.871A3.222,3.222,0,0,0,0,9.372V22.813C0,24.777,1.793,26,3.818,26H14.163C16.177,26,18,24.777,18,22.813V9.372a3.22,3.22,0,0,0-2.192-3.225A2.214,2.214,0,0,0,16,5.278V2.359C16,.759,13.954,0,12.792,0Z"/><rect class="79ec7f2a-351f-4709-bfc6-2dbb4bb9464b" x="5" y="10" width="8" height="12"/></g></g></svg>