<svg xmlns="http://www.w3.org/2000/svg" xmlns:xlink="http://www.w3.org/1999/xlink" viewBox="0 0 25.541 28.02"><defs><style>.\31 1e1b0ef-ed44-418a-b2da-8fd7ae687a7c{fill:url(#724cf3f2-a14d-4e85-8e2f-13a73d2bf8fc);}.\34 7ea0ce9-d1f7-45b9-9c32-6b1fe4760fc0{fill:#fff;}.\32 31b04df-c4b9-419e-aade-0e5b8daee85b{fill:url(#407f9c14-65d5-4eca-a549-6d2690d412f8);}</style><linearGradient id="724cf3f2-a14d-4e85-8e2f-13a73d2bf8fc" x1="12.77" y1="2.3" x2="12.77" y2="27.946" gradientUnits="userSpaceOnUse"><stop offset="0" stop-color="#603"/><stop offset="0.4" stop-color="#92001b"/><stop offset="0.793" stop-color="#b70008"/><stop offset="1" stop-color="#c50000"/></linearGradient><linearGradient id="407f9c14-65d5-4eca-a549-6d2690d412f8" x1="12.77" y1="2.26" x2="12.77" y2="27.569" xlink:href="#724cf3f2-a14d-4e85-8e2f-13a73d2bf8fc"/></defs><title>camera-ptz-error</title><g id="b43e3a08-5562-4909-aedd-040e77ecbb84" data-name="Layer 2"><g id="9e2aa8e9-f71f-46ba-b88e-7e9b9723fafb" data-name="Layer 1"><path class="11e1b0ef-ed44-418a-b2da-8fd7ae687a7c" d="M20.77,10.02V24.25a3.2,3.2,0,0,1-.06.63A11.48,11.48,0,0,1,17.53,27H8.01a11.74,11.74,0,0,1-3.17-2.1,2.812,2.812,0,0,1-.07-.65V10.02A2.869,2.869,0,0,1,7.42,7h.27c-.25-.32-.92-.79-.92-1.32V2.59C6.77,1.51,8.28,1,8.931,1h7.93c.77,0,1.91.6,1.91,1.59V5.68c0,.53,0,1-.56,1.32h.16C19.9,7,20.77,8.46,20.77,10.02Z"/><path class="47ea0ce9-d1f7-45b9-9c32-6b1fe4760fc0" d="M19.51,6.6a2.437,2.437,0,0,0,.26-.92V2.59A2.67,2.67,0,0,0,17.03,0h-8.1C7.69,0,5.77.9,5.77,2.59V5.68a2.386,2.386,0,0,0,.26.92,3.368,3.368,0,0,0-2.26,3.42V23.75A11.628,11.628,0,0,0,12.09,28h1.36a11.628,11.628,0,0,0,8.32-4.25V10.02A3.368,3.368,0,0,0,19.51,6.6Zm.26,17.74c-.03.91-.47,1.66-1.4,1.66H7.42a1.658,1.658,0,0,1-1.64-1.66.276.276,0,0,1-.01-.09V10.02A1.93,1.93,0,0,1,7.42,8H9.77V6h-.84c-.28,0-1.16-.04-1.16-.32V2.59c0-.27.88-.59,1.16-.59h7.84l.02.07c.27,0,.98.25.98.52V5.68c0,.28-.63.32-.91.32h-.09V8h1.6c.96,0,1.4,1.06,1.4,2.02Z"/><rect class="47ea0ce9-d1f7-45b9-9c32-6b1fe4760fc0" x="8.77" y="10" width="8" height="13"/><path class="231b04df-c4b9-419e-aade-0e5b8daee85b" d="M12.77,26.986a10.612,10.612,0,0,1-8.823-4.732l-1,.267a1.521,1.521,0,0,1-1.6-.546,1.513,1.513,0,0,1-.262-1.322l1.446-5.4a1.528,1.528,0,0,1,1.475-1.13,1.513,1.513,0,0,1,1.076.447l3.951,3.951a1.525,1.525,0,0,1-.545,2.507,6.3,6.3,0,0,0,8.566,0,1.525,1.525,0,0,1-.545-2.507l3.951-3.951a1.524,1.524,0,0,1,2.551.684l1.446,5.4a1.513,1.513,0,0,1-.262,1.322,1.533,1.533,0,0,1-1.208.6h0a1.537,1.537,0,0,1-.4-.052l-1-.267A10.613,10.613,0,0,1,12.77,26.986Z"/><path class="47ea0ce9-d1f7-45b9-9c32-6b1fe4760fc0" d="M25.45,20.39l-1.44-5.4a2.55,2.55,0,0,0-2.24-1.88.976.976,0,0,0-.24-.02,2.417,2.417,0,0,0-.76.12,2.6,2.6,0,0,0-1,.59l-.04.04-3.95,3.95a2.57,2.57,0,0,0-.67,2.47,2.456,2.456,0,0,0,.31.7,5.237,5.237,0,0,1-5.3,0,2.456,2.456,0,0,0,.31-.7,2.571,2.571,0,0,0-.67-2.47L5.77,13.8a2.6,2.6,0,0,0-1-.59,2.417,2.417,0,0,0-.76-.12.977.977,0,0,0-.24.02,2.55,2.55,0,0,0-2.24,1.88L.09,20.39A2.5,2.5,0,0,0,.53,22.6a2.568,2.568,0,0,0,2.02,1.01,2.516,2.516,0,0,0,.67-.09l.3-.08a3.82,3.82,0,0,0,.25.31A11.622,11.622,0,0,0,12.09,28c.23.01.45.02.68.02s.45-.01.68-.02a11.759,11.759,0,0,0,4.08-1,11.48,11.48,0,0,0,3.18-2.12,11.338,11.338,0,0,0,1.06-1.13,3.769,3.769,0,0,0,.25-.31l.3.08a2.516,2.516,0,0,0,.67.09,2.568,2.568,0,0,0,2.02-1.01A2.5,2.5,0,0,0,25.45,20.39Zm-2.46,1.15a.5.5,0,0,1-.13-.02l-1.09-.29-.66-.17c-.11.19-.22.38-.34.56a8.726,8.726,0,0,1-1,1.27,9.537,9.537,0,0,1-14,0,8.726,8.726,0,0,1-1-1.27c-.12-.18-.23-.37-.34-.56l-.66.17-1.09.29a.507.507,0,0,1-.13.02.5.5,0,0,1-.47-.62l1.45-5.4a.49.49,0,0,1,.24-.3.534.534,0,0,1,.24-.06.514.514,0,0,1,.34.14l1.42,1.42L8.3,19.26a.488.488,0,0,1-.22.82l-1.43.38a7.35,7.35,0,0,0,12.24,0l-1.43-.38a.488.488,0,0,1-.22-.82l2.53-2.54,1-1,.42-.42a.514.514,0,0,1,.34-.14.533.533,0,0,1,.24.06.49.49,0,0,1,.24.3l1.45,5.4A.5.5,0,0,1,22.99,21.54Z"/></g></g></svg>